<svg width="131" height="129" viewBox="0 0 131 129" fill="none" xmlns="http://www.w3.org/2000/svg">
<mask id="mask0_118_2865" style="mask-type:luminance" maskUnits="userSpaceOnUse" x="0" y="0" width="131" height="129">
<path d="M65.5 128.883C101.675 128.883 131 100.032 131 64.4417C131 28.8515 101.675 0 65.5 0C29.3253 0 0 28.8515 0 64.4417C0 100.032 29.3253 128.883 65.5 128.883Z" fill="white"/>
</mask>
<g mask="url(#mask0_118_2865)">
<path d="M65.5 128.883C101.675 128.883 131 100.032 131 64.4417C131 28.8515 101.675 0 65.5 0C29.3253 0 0 28.8515 0 64.4417C0 100.032 29.3253 128.883 65.5 128.883Z" fill="#8FC3D8"/>
</g>
<mask id="mask1_118_2865" style="mask-type:luminance" maskUnits="userSpaceOnUse" x="0" y="0" width="131" height="129">
<path d="M65.5 128.883C101.675 128.883 131 100.032 131 64.4417C131 28.8515 101.675 0 65.5 0C29.3253 0 0 28.8515 0 64.4417C0 100.032 29.3253 128.883 65.5 128.883Z" fill="white"/>
</mask>
<g mask="url(#mask1_118_2865)">
<path d="M20.1121 128.884H110.888C110.888 128.884 115.131 106.997 110.888 101.602C105.895 95.253 79.2876 93.5474 79.2876 93.5474H51.7115C51.7115 93.5474 25.1055 95.253 20.1107 101.602C15.8695 106.996 20.1121 128.884 20.1121 128.884Z" fill="#FC611F"/>
<path d="M65.4995 93.5474H51.7114C51.7114 93.5474 51.8003 105.675 65.4995 115.648C79.2015 105.675 79.2861 93.5474 79.2861 93.5474H65.4995Z" fill="white"/>
<path d="M90.3488 55.5946C88.4804 54.4654 85.7365 56.6406 84.2235 60.4537C82.709 64.2669 82.997 68.2732 84.8654 69.4023C86.7338 70.53 89.4776 68.3563 90.9907 64.5432C92.5052 60.7286 92.2158 56.7223 90.3488 55.5946Z" fill="#FEE69F"/>
<path d="M40.6525 55.5946C42.5209 54.4654 45.2647 56.6406 46.7792 60.4537C48.2923 64.2669 48.0071 68.2732 46.1359 69.4023C44.266 70.53 41.525 68.3563 40.0106 64.5432C38.4961 60.7286 38.7826 56.7223 40.6525 55.5946Z" fill="#FEE69F"/>
<path d="M76.8935 66.7323H54.1059L51.7117 93.5471C51.7117 96.513 57.8843 98.9179 65.4997 98.9179C73.1152 98.9179 79.2863 96.513 79.2863 93.5471L76.8935 66.7323Z" fill="#FEE69F"/>
<path d="M90.8872 48.7859C90.8872 66.442 79.5206 86.379 65.499 86.379C51.4774 86.379 40.1108 66.442 40.1108 48.7859C40.1108 31.1312 51.4774 22.4406 65.499 22.4406C79.5206 22.4406 90.8872 31.1312 90.8872 48.7859Z" fill="#FEE69F"/>
<path opacity="0.4" d="M65.4985 22.4406C51.477 22.4406 40.1118 31.1312 40.1118 48.7859C40.1118 66.442 51.4784 86.379 65.4985 86.379V22.4406Z" fill="white"/>
<path opacity="0.1" d="M65.5006 86.3791C60.8955 86.3791 56.5813 84.2194 52.8574 80.7065L52.7256 82.1782C56.4796 85.7701 60.8382 87.9903 65.5006 87.9903C70.1587 87.9903 74.5202 85.7856 78.2742 82.198L78.141 80.708C74.4185 84.2209 70.1043 86.3791 65.5006 86.3791Z" fill="black"/>
<path d="M89.4832 38.7462C89.4832 38.7462 89.4129 38.5136 89.2797 38.0766C89.1235 37.6466 89.0046 36.9841 88.6507 36.2003C88.4859 35.8028 88.3039 35.363 88.1062 34.8823C87.8698 34.4213 87.6133 33.9209 87.3397 33.388C86.7608 32.335 86.0129 31.1903 85.0557 30.0429C84.0785 28.9165 82.9366 27.7479 81.5482 26.7203C80.1942 25.6475 78.5937 24.7326 76.8629 23.9742C75.1363 23.1905 73.2364 22.659 71.2892 22.2728C69.3277 21.8823 67.3289 21.7653 65.2814 21.7441C63.3399 21.7611 61.2465 21.9993 59.3151 22.37C57.3679 22.7887 55.5024 23.4146 53.7744 24.1885C52.0693 25.0103 50.4875 25.9478 49.1578 27.0529C48.4672 27.5717 47.8841 28.1793 47.2851 28.7206C46.7536 29.3296 46.1847 29.8666 45.7434 30.47C44.8064 31.633 44.0899 32.7988 43.5412 33.8659C43.2804 34.4086 43.0153 34.902 42.8119 35.3785C42.6242 35.8592 42.4508 36.3018 42.2946 36.7008C41.9651 37.4916 41.8504 38.1626 41.7057 38.5939C41.5825 39.0323 41.5166 39.2677 41.5166 39.2677C41.6771 38.959 41.8533 38.6616 42.0668 38.3994C42.4365 39.2156 43.0626 40.1164 43.9811 41.137C44.1487 40.2362 44.5069 39.506 44.9883 38.8745C45.3766 39.6836 46.0243 40.5731 46.9642 41.574C47.1103 40.6704 47.4513 39.9317 47.9199 39.2917C48.3254 40.0938 48.9888 40.965 49.9502 41.9461C50.0777 41.0383 50.403 40.294 50.8557 39.6413C51.2798 40.435 51.9619 41.292 52.9448 42.2506C53.0522 41.3428 53.3589 40.5886 53.7973 39.9275C54.2372 40.7099 54.9393 41.5543 55.9394 42.4917C56.0253 41.5796 56.3176 40.8198 56.7389 40.1502C57.1974 40.9241 57.9195 41.753 58.9411 42.6679C59.0085 41.7544 59.2793 40.989 59.6876 40.3109C60.1619 41.0736 60.9027 41.8869 61.9443 42.7806C61.993 41.87 62.2438 41.0933 62.6364 40.4054C63.1278 41.1567 63.8858 41.956 64.949 42.8244C64.9748 41.9109 65.2112 41.1327 65.5866 40.4364C66.0952 41.1779 66.8718 41.9588 67.9536 42.8074C67.9593 41.8926 68.1771 41.1102 68.5382 40.4068C69.0655 41.137 69.8549 41.9038 70.9539 42.7257C70.9396 41.8122 71.143 41.0242 71.4898 40.3123C72.03 41.0312 72.8395 41.7756 73.9571 42.5748C73.9227 41.6614 74.1076 40.8705 74.4371 40.1502C74.9959 40.8579 75.8212 41.5867 76.9574 42.3606C76.9015 41.4485 77.0692 40.6521 77.3815 39.9261C77.9561 40.6196 78.7972 41.3315 79.952 42.0814C79.8761 41.1694 80.0237 40.3715 80.3217 39.6399C80.9106 40.3208 81.7703 41.0157 82.9409 41.7403C82.8449 40.8297 82.9767 40.029 83.2575 39.2903C83.8608 39.9613 84.7348 40.6337 85.9212 41.3329C85.8051 40.4251 85.9197 39.6216 86.1848 38.8773C86.8038 39.5342 87.6936 40.1883 88.8986 40.8607C88.761 39.9557 88.8556 39.1479 89.1063 38.398C89.2195 38.5164 89.3513 38.6306 89.4832 38.7462Z" fill="#8F6C08"/>
</g>
</svg>
